P2
5 5 
255 
0 0 0 0 0 
0 0 0 0 0 
0 0 250 0 0 
0 0 0 0 0 
0 0 0 0 0 
