P2
5 5
255
10 210 209 209 10 
10 209 10 209 10 
10 210 209 209 10 
10 209 10 10 10 
10 209 10 10 10 
