P2
5 5
255
0 0 0 0 0 
1 30 0 78 1 
0 0 0 0 0 
0 0 0 0 0 
0 0 0 0 0 
