P2
5 5 
255 
10 210 210 210 10 
10 210 10 210 10 
10 210 210 210 10 
10 210 10 10 10 
10 210 10 10 10 
